<svg xmlns="http://www.w3.org/2000/svg" viewBox="0 0 64 64" fill="none">
  <!-- Background circle — deep forest -->
  <circle cx="32" cy="32" r="32" fill="#0f1a0e"/>

  <!-- Left antler beam -->
  <path
    d="M24 46 C22 38 18 30 16 22 C15 18 17 14 20 13 C22 12 24 14 24 17 C24 14 23 10 25 8 C26.5 6 29 7 29 10 C29 8 30 6 32 6"
    stroke="#d4b896" stroke-width="2.5" stroke-linecap="round" stroke-linejoin="round" fill="none"/>

  <!-- Left brow tine -->
  <path
    d="M20 21 C17 19 14 18 12 16"
    stroke="#d4b896" stroke-width="2" stroke-linecap="round" fill="none"/>

  <!-- Left bez tine -->
    <path
    d="M22 28 C19 26 15 25 13 23"
    stroke="#d4b896" stroke-width="2" stroke-linecap="round" fill="none"/>

  <!-- Right antler beam -->
  <path
    d="M40 46 C42 38 46 30 48 22 C49 18 47 14 44 13 C42 12 40 14 40 17 C40 14 41 10 39 8 C37.5 6 35 7 35 10 C35 8 34 6 32 6"
    stroke="#d4b896" stroke-width="2.5" stroke-linecap="round" stroke-linejoin="round" fill="none"/>

  <!-- Right brow tine -->
  <path
    d="M44 21 C47 19 50 18 52 16"
    stroke="#d4b896" stroke-width="2" stroke-linecap="round" fill="none"/>

  <!-- Right bez tine -->
  <path
    d="M42 28 C45 26 49 25 51 23"
    stroke="#d4b896" stroke-width="2" stroke-linecap="round" fill="none"/>

  <!-- Ring band at base — gold accent -->
  <ellipse cx="32" cy="47" rx="9" ry="3.5"
    stroke="#b8860b" stroke-width="2" fill="none"/>

  <!-- Gold dot accent at crown -->
  <circle cx="32" cy="6" r="1.5" fill="#b8860b"/>
</svg>
